<svg xmlns="http://www.w3.org/2000/svg" xmlns:xlink="http://www.w3.org/1999/xlink" viewBox="0,0,256,256" width="90px" height="90px"><g fill="#dbbe7e" fill-rule="nonzero" stroke="none" stroke-width="1" stroke-linecap="butt" stroke-linejoin="miter" stroke-miterlimit="10" stroke-dasharray="" stroke-dashoffset="0" font-family="none" font-weight="none" font-size="none" text-anchor="none" style="mix-blend-mode: normal"><g transform="scale(8.53333,8.53333)"><path d="M7,4l2,3.25v15.5l-2.125,3.25h15.08203l3.04297,-4h-11v-18zM16,4.05078v2.00781c4.493,0.499 8,4.31641 8,8.94141c0,1.849 -0.56148,3.569 -1.52148,5h2.30664c0.771,-1.502 1.21484,-3.199 1.21484,-5c0,-5.728 -4.402,-10.44222 -10,-10.94922zM6.87305,7.61133c-1.779,1.955 -2.87305,4.54367 -2.87305,7.38867c0,2.837 1.08842,5.41809 2.85742,7.37109l0.14258,-0.2168v-3.04883c-0.635,-1.233 -1,-2.62647 -1,-4.10547c0,-1.479 0.365,-2.87247 1,-4.10547v-3.07812z"></path></g></g></svg>