<?xml version="1.0" standalone="no"?>
<!DOCTYPE svg PUBLIC "-//W3C//DTD SVG 20010904//EN"
 "http://www.w3.org/TR/2001/REC-SVG-20010904/DTD/svg10.dtd">
<svg version="1.0" xmlns="http://www.w3.org/2000/svg"
 width="500.000000pt" height="500.000000pt" viewBox="0 0 500.000000 500.000000"
 preserveAspectRatio="xMidYMid meet">
<metadata>
Created by potrace 1.14, written by Peter Selinger 2001-2017
</metadata>
<g transform="translate(0.000000,500.000000) scale(0.100000,-0.100000)"
fill="#000000" stroke="none">
<path d="M0 2500 l0 -2500 2500 0 2500 0 0 2500 0 2500 -2500 0 -2500 0 0
-2500z m972 578 c9 -7 51 -76 93 -153 43 -77 83 -144 91 -148 22 -13 -2 -49
-29 -45 -17 2 -41 37 -99 143 -43 77 -87 148 -99 158 -18 14 -43 17 -160 17
-76 0 -139 4 -139 8 0 4 5 13 12 20 17 17 308 17 330 0z m722 -4 c14 -14 16
-75 16 -529 0 -454 -2 -515 -16 -529 -8 -9 -20 -16 -25 -16 -5 0 -9 204 -9
513 0 386 -3 516 -12 525 -8 8 -59 12 -162 12 -148 0 -149 0 -131 20 17 18 31
20 171 20 125 0 155 -3 168 -16z m1580 0 c13 -12 16 -39 16 -129 0 -90 -3
-117 -16 -129 -8 -9 -20 -16 -25 -16 -5 0 -9 50 -9 113 0 75 -4 117 -12 125
-15 15 -434 16 -527 1 -36 -5 -87 -20 -113 -33 -45 -22 -47 -22 -31 -4 25 28
88 59 148 74 33 8 138 13 302 13 216 1 254 -1 267 -15z m1074 4 c17 -17 17
-249 0 -266 -24 -24 -28 -10 -28 97 0 86 -3 113 -16 125 -13 14 -49 16 -237
16 -236 0 -325 -9 -396 -41 l-44 -19 19 21 c23 26 89 57 147 68 70 14 541 13
555 -1z m-1523 -544 c0 -253 -4 -244 107 -244 67 0 68 -1 68 -26 l0 -26 -91 4
c-133 5 -129 -3 -129 257 0 171 3 210 16 229 8 12 18 22 22 22 4 0 7 -97 7
-216z m1094 -227 c10 -13 31 -17 87 -17 72 0 74 -1 74 -25 0 -25 -1 -25 -81
-25 -77 0 -115 10 -131 34 -4 6 -8 109 -8 228 0 193 2 218 18 234 16 17 17 7
22 -198 4 -162 8 -219 19 -231z m-553 259 c18 -13 19 -30 22 -263 2 -251 -2
-290 -35 -300 -10 -4 -13 55 -15 259 l-3 263 -147 3 c-82 1 -148 7 -148 12 0
5 7 16 16 24 22 22 280 23 310 2z m1078 -2 c14 -13 16 -53 16 -278 0 -256 -3
-286 -32 -286 -4 0 -8 111 -8 246 0 150 -4 253 -10 265 -10 17 -23 19 -150 19
-116 0 -140 3 -140 15 0 27 36 34 172 35 111 0 139 -3 152 -16z m-3489 -67
c10 -24 12 -83 8 -252 -5 -204 -11 -245 -34 -245 -5 0 -9 122 -9 271 0 275 4
300 35 226z m375 38 c0 -16 -61 -123 -79 -139 -16 -14 -10 3 21 62 37 70 58
98 58 77z m958 -131 c21 -15 22 -21 22 -194 0 -157 -2 -181 -17 -196 -17 -17
-18 -9 -21 156 -1 107 -7 179 -13 187 -9 10 -53 13 -185 13 -145 0 -174 2
-174 15 0 28 36 34 200 35 134 0 170 -3 188 -16z"/>
</g>
</svg>
